<svg version="1.1" viewBox="0.0 0.0 960.0 720.0" fill="none" stroke="none" stroke-linecap="square" stroke-miterlimit="10" xmlns:xlink="http://www.w3.org/1999/xlink" xmlns="http://www.w3.org/2000/svg"><clipPath id="p.0"><path d="m0 0l960.0 0l0 720.0l-960.0 0l0 -720.0z" clip-rule="nonzero"/></clipPath><g clip-path="url(#p.0)"><path fill="#000000" fill-opacity="0.0" d="m0 0l960.0 0l0 720.0l-960.0 0z" fill-rule="evenodd"/><path fill="#000000" fill-opacity="0.0" d="m239.95538 21.868767l496.34644 0l0 665.7953l-496.34644 0z" fill-rule="evenodd"/><path fill="#000000" d="m404.68976 373.85315q-64.328125 -18.484375 -93.625 -45.4375q-29.296875 -26.953125 -29.296875 -66.53125q0 -44.79689 35.796875 -74.093765q35.8125 -29.296875 93.109375 -29.296875q39.0625 0 69.65625 15.109375q30.609375 15.109375 47.390625 41.671875q16.796875 26.5625 16.796875 58.062515l-50.25 0q0 -34.375015 -21.875 -54.031265q-21.875 -19.65625 -61.71875 -19.65625q-36.984375 0 -57.6875 16.28125q-20.703125 16.265625 -20.703125 45.17189q0 23.171875 19.65625 39.1875q19.671875 16.015625 66.9375 29.296875q47.265625 13.28125 73.953125 29.296875q26.6875 16.015625 39.578125 37.375q12.890625 21.34375 12.890625 50.25q0 46.09375 -35.9375 73.828125q-35.921875 27.734375 -96.078125 27.734375q-39.0625 0 -72.921875 -14.96875q-33.859375 -14.96875 -52.21875 -41.015625q-18.359375 -26.046875 -18.359375 -59.109375l50.265625 0q0 34.375 25.390625 54.296875q25.390625 19.921875 67.84375 19.921875q39.578125 0 60.671875 -16.140625q21.09375 -16.15625 21.09375 -44.015625q0 -27.875 -19.53125 -43.109375q-19.53125 -15.234375 -70.828125 -30.078125z" fill-rule="nonzero"/><path fill="#000000" fill-opacity="0.0" d="m355.13647 186.60367l143.9685 0l0 164.81891l-143.9685 0z" fill-rule="evenodd"/><path fill="#000000" d="m438.19897 286.1943l11.484375 -60.70314l17.515625 0l-18.921875 85.312515l-17.6875 0l-13.890625 -57.07814l-13.890625 57.07814l-17.6875 0l-18.9375 -85.312515l17.53125 0l11.53125 60.57814l14.0625 -60.57814l14.890625 0l14.0 60.70314z" fill-rule="nonzero"/><path fill="#000000" fill-opacity="0.0" d="m355.13647 354.37796l174.36218 0l0 180.97635l-174.36218 0z" fill-rule="evenodd"/><path fill="#000000" d="m372.60522 491.37796l0 -94.78125l33.203125 0q17.25 0 26.15625 6.609375q8.921875 6.59375 8.921875 19.359375q0 6.96875 -3.578125 12.28125q-3.578125 5.296875 -9.953125 7.765625q7.28125 1.828125 11.484375 7.359375q4.203125 5.53125 4.203125 13.546875q0 13.671875 -8.734375 20.703125q-8.71875 7.03125 -24.859375 7.15625l-36.84375 0zm19.53125 -41.28125l0 25.59375l16.71875 0q6.90625 0 10.78125 -3.28125q3.875 -3.296875 3.875 -9.09375q0 -13.015625 -13.484375 -13.21875l-17.890625 0zm0 -13.796875l14.453125 0q14.765625 -0.265625 14.765625 -11.78125q0 -6.4375 -3.75 -9.265625q-3.734375 -2.84375 -11.796875 -2.84375l-13.671875 0l0 23.890625z" fill-rule="nonzero"/></g></svg>